<svg xmlns:dc="http://purl.org/dc/elements/1.1/" xmlns:cc="http://creativecommons.org/ns#" xmlns:rdf="http://www.w3.org/1999/02/22-rdf-syntax-ns#" xmlns:svg="http://www.w3.org/2000/svg" xmlns="http://www.w3.org/2000/svg" height="441.33334" width="493.35999" xml:space="preserve" version="1.1"><rect id="backgroundrect" width="100%" height="100%" x="0" y="0" fill="none" stroke="none"/><metadata id="metadata8"><rdf:RDF><cc:Work rdf:about=""><dc:format>image/svg+xml</dc:format><dc:type rdf:resource="http://purl.org/dc/dcmitype/StillImage"/></cc:Work></rdf:RDF></metadata><defs id="defs6"/><g class="currentLayer" style=""><title>Layer 1</title><g id="g10" class="" fill="#919191" fill-opacity="1"><g id="g12" stroke-width="0" fill="#919191" fill-opacity="1"><path id="path14" style="fill-rule: nonzero; stroke: none;" d="M8.698959912150602,150.8333329337127 L103.36559895612743,185.9999992452369 L103.1989322911439,439.33333002019765 L8.698959912150602,404.4999970386406 v-253.66666410492783 " stroke-width="0" fill="#919191" fill-opacity="1"/><path id="path16" style="fill-rule: nonzero; stroke: none;" d="m107.21933225054254,89.32133355491248 c10.858799890338727,32.12133300894516 -3.5297332976871245,58.159999412651516 -32.13866634210344,58.159999412651516 c-28.607733044428436,0 -60.60146605466221,-26.03866640370636 -71.46035927833333,-58.159999412651516 c-10.857799890348824,-32.11866634230542 3.5307332976770254,-58.15733274601178 32.13849300877186,-58.15733274601178 c28.60893304441632,0 60.60159938799419,26.03866640370636 71.4605326116649,58.15733274601178 " stroke-width="0" fill="#919191" fill-opacity="1"/><path id="path18" style="fill-rule: nonzero; stroke: none;" d="M223.81066440643875,150.8333329337127 L129.14373202913154,185.9999992452369 L129.31039869411507,439.33333002019765 L223.81066440643875,404.4999970386406 v-253.66666410492783 " stroke-width="0" fill="#919191" fill-opacity="1"/><path id="path20" style="fill-rule: nonzero; stroke: none;" d="m124.67759874090098,89.32133355491248 c-10.85826655701078,32.12133300894516 3.530266631015072,58.159999412651516 32.13839967543947,58.159999412651516 c28.60799971109241,0 60.601332721330216,-26.03866640370636 71.46133261165683,-58.159999412651516 c10.857333223686872,-32.11866634230542 -3.5306666310110324,-58.15733274601178 -32.13866634210344,-58.15733274601178 c-28.609333044412278,0 -60.602666054650086,26.03866640370636 -71.46106594499285,58.15733274601178 " stroke-width="0" fill="#919191" fill-opacity="1"/><path id="path22" style="fill-rule: nonzero; stroke: none;" d="m248.03199749516475,150.8333329337127 l94.66666571064323,35.16666631152416 l-0.16666666498352684,253.33333077496076 l-94.4999990456597,-34.833332981557106 v-253.66666410492783 " stroke-width="0" fill="#919191" fill-opacity="1"/><path id="path24" style="fill-rule: nonzero; stroke: none;" d="m347.16532982736646,89.32133355491248 c10.859999890326607,32.12133300894516 -3.529333297691164,58.159999412651516 -32.13733300878358,58.159999412651516 c-28.61066637773215,0 -60.602666054650086,-26.03866640370636 -71.46133261165683,-58.159999412651516 c-10.858666557006739,-32.11866634230542 3.5306666310110324,-58.15733274601178 32.13733300878358,-58.15733274601178 c28.609333044412278,0 60.601332721330216,26.03866640370636 71.46133261165683,58.15733274601178 " stroke-width="0" fill="#919191" fill-opacity="1"/><path id="path26" style="fill-rule: nonzero; stroke: none;" d="m493.3653283509162,0.0000011236209616072301 v86.999999121401 c0,0 -30.666666356968936,-11.99999987881393 -34.33333298660653,18.99999980812206 c-0.33333332996705367,32.99999966673831 0,44.83333288056871 0,44.83333288056871 l34.33333298660653,-11.166666553896297 V215.99999894227173 l-34.4813329851119,12.333333208780985 V406.33333035345936 L364.6986629836335,441.33333 v-314.6666634888986 c0,0 -1.9999999798023218,-113.33333218879824 128.66666536728272,-126.66666538748038 " stroke-width="0" fill="#919191" fill-opacity="1"/></g></g></g></svg>